<mxfile host="app.diagrams.net" modified="2023-10-04T06:43:55.299Z" agent="Mozilla/5.0 (Windows NT 10.0; Win64; x64) AppleWebKit/537.36 (KHTML, like Gecko) Chrome/117.0.0.0 Safari/537.36" version="22.0.2" etag="fprI8THIXchf7wwnfAhc" type="github">
  <diagram name="Page-1" id="olm9c_AXDBSFhyzIpc0j">
    <mxGraphModel>
      <root>
        <mxCell id="0" />
        <mxCell id="1" parent="0" />
      </root>
    </mxGraphModel>
  </diagram>
</mxfile>
